<svg xmlns="http://www.w3.org/2000/svg" xmlns:xlink="http://www.w3.org/1999/xlink" width="371.457" height="414.007" viewBox="0 0 371.457 414.007">
  <defs>
    <clipPath id="clip-path">
      <rect id="Rectangle_394" data-name="Rectangle 394" width="211.55" height="356.265" fill="#f3bb82"/>
    </clipPath>
  </defs>
  <g id="Group_1441" data-name="Group 1441" transform="matrix(0.839, 0.545, -0.545, 0.839, 194.036, 0)" opacity="0.14">
    <g id="Group_1440" data-name="Group 1440" clip-path="url(#clip-path)">
      <path id="Path_461" data-name="Path 461" d="M143.973,228.206a35.761,35.761,0,0,0-11.6-14.607c1.288.764,2.675,1.947,4.05,2.107.762-.829.872-.36,2-.637-2.863-.488-4.94-2.274-6.93-2.078a30.044,30.044,0,0,0-8.14-3.932,14.124,14.124,0,0,0,4.058,8.582c.052,1.707.693,4.13,1.94,5.284,1.1-.219,2.207.967,3.278,1.406a36.551,36.551,0,0,1-4.6-6.052,28.643,28.643,0,0,0,4.716,3.715c3.291,2.109,6.873,3.936,9.765,6.586a7.037,7.037,0,0,1-.208,1.477c-.314,1.285-.878,2.546-1.169,3.831a4.023,4.023,0,0,0,.5,3.533c3.071-1.894,4.992-2.6,7.088-.064a30.454,30.454,0,0,0-4.744-9.15" transform="translate(11.221 19.017)" fill="#f3bb82"/>
      <path id="Path_462" data-name="Path 462" d="M81.608,176.083C71.2,170.7,64.5,158.71,63.006,147.931a33.876,33.876,0,0,1,.331-9.139c.252-2.152,1.519-1.887,2.4-1.118,7.68,6.736,8.524,8.814,9.788,16.24,1.329,7.8,1.662,16.431,6.088,22.17" transform="translate(5.713 12.472)" fill="#f3bb82"/>
      <path id="Path_463" data-name="Path 463" d="M78.078,170.964a2.487,2.487,0,0,1-.823-1.285,4.565,4.565,0,0,0,3.7,1.06c1.434-.081,2.9-.427,4.333-.484s2.9.231,3.611,1.188c-4.083,4.175.271,4.069-1.786,7.332a16.159,16.159,0,0,1-9.6-7.938l.569.127" transform="translate(7.028 15.435)" fill="#f3bb82"/>
      <path id="Path_464" data-name="Path 464" d="M64.691,161.853l-.527-12.472c-1.182,2.492-2.412,5.269-1.982,7.908,1.468.74,1.671,3.1,2.509,4.564" transform="translate(5.648 13.588)" fill="#f3bb82"/>
      <path id="Path_465" data-name="Path 465" d="M76.092,150.492a13.3,13.3,0,0,1-3.48-4.03c.567,3.311,2.563,6.373,4.781,7.056.773-.978,2.677-.386,3.851-.818a10.949,10.949,0,0,1-5.152-2.208" transform="translate(6.605 13.323)" fill="#f3bb82"/>
      <path id="Path_466" data-name="Path 466" d="M73.694,16.333A28.693,28.693,0,0,0,60.263,40.392c-.131,6.739,1.558,13.989.3,20.317C57.66,75.323,40.834,78.7,36.178,92.351c7.78-5.441,16.529-9.707,23.338-16.324,20.543-19.964,20.849-41.242,19.9-58.266-.293-5.276-4.308-2.3-5.723-1.428" transform="translate(3.291 1.338)" fill="#f3bb82"/>
      <path id="Path_467" data-name="Path 467" d="M39.064,83.792a3.488,3.488,0,0,1,2.043-.62c-1.521.711-2.4,2.617-2.834,4.58s-.528,4.073-.995,6.021-1.413,3.812-2.973,4.413c-.48-5.147-5.04-4.685-9.2-5.193a22.621,22.621,0,0,1,14.344-9.921c-.129.241-.259.48-.387.72" transform="translate(2.284 7.557)" fill="#f3bb82"/>
      <path id="Path_468" data-name="Path 468" d="M57.333,41.557a24.425,24.425,0,0,1,5.7-7.952c-5.67,2.438-10.283,7.321-10.549,11.577,2.079.961,1.842,4.617,3.118,6.529a20.126,20.126,0,0,1,1.729-10.155" transform="translate(4.774 3.057)" fill="#f3bb82"/>
      <path id="Path_469" data-name="Path 469" d="M78.842,39.093a24.443,24.443,0,0,1-2.821-9.369c-1.528,5.981-.473,12.616,2.736,15.422,2.031-1.062,4.783,1.357,7.076,1.512a20.138,20.138,0,0,1-6.991-7.565" transform="translate(6.852 2.704)" fill="#f3bb82"/>
      <path id="Path_470" data-name="Path 470" d="M93.934,213.114c-4.144-2.365-.575-4.384-1.58-9.423-1.31-.756-3.159-.361-4.795.419s-3.173,1.916-4.8,2.725a8.489,8.489,0,0,1-2.87.9c-4.49-1.585-9.347-1.045-12.867-5.644-1.058-1.382-2.4-3.3-3.8-5.169a13.6,13.6,0,0,0,6.855-1.322c-3.278.308-4.706-1.09-6.06-2.172-1.931-.577-2.776.02-4.343-.807-.125-.13-.252-.259-.375-.377-2.052-1.981-6.373-7.938-13.872-9.056a20.377,20.377,0,0,0,5.756,16.035c.763,2.87,1.773,5.826,3.9,7.69,1.915-.435,3.891,1.581,5.779,2.3l-6.533-7.267A36.747,36.747,0,0,0,68.836,207.9l11.506,1.929a20.81,20.81,0,0,0,13.592,3.285" transform="translate(4.128 16.663)" fill="#f3bb82"/>
      <path id="Path_471" data-name="Path 471" d="M43.692,1.388a17.637,17.637,0,0,1-4.277,7.24,10.666,10.666,0,0,0-1.3,4.421,8.9,8.9,0,0,0,1.211,5.135c-1.135-.677-1.789-2.454-3.175-2.535-.567-1.538.142-3.661,1.636-5.556-.131.11-.273.211-.4.312-3.371,2.5-7.244,4.548-9.666,7.98a16.541,16.541,0,0,0-2.793,8.33,34.7,34.7,0,0,0,.218,6.306,5.512,5.512,0,0,0,1.266,1.8c.96.961,2.16,1.812,3.087,2.782s1.6,2.151,1.244,3.149c-3.24-1.72-5.04.7-7.233,2.554a12.011,12.011,0,0,1,.513-10.544,24.315,24.315,0,0,1-2.52-12.5A23.329,23.329,0,0,1,28.517,5.3a18.906,18.906,0,0,1,1.811-1.519,14.914,14.914,0,0,0-4.244,2.361,10.136,10.136,0,0,0-3.317,4.43c-.273-1.144.7-2.819-.24-3.67,1.091-1.876,4.56-3.24,8.15-3.378A18,18,0,0,1,41.39.005c.785.019,2.684.046,2.3,1.382" transform="translate(1.951 0)" fill="#f3bb82"/>
      <path id="Path_472" data-name="Path 472" d="M51.452,27.5c-.781.4-2.217.257-2.636.949a4.743,4.743,0,0,1-2.636-1.354,15.892,15.892,0,0,1,.8,10.768,19.688,19.688,0,0,1-6.145,9.617l-.007.007a5.777,5.777,0,0,0-.448,1.2c-.284,1.1-.348,2.284-.646,3.381a3.408,3.408,0,0,1-1.94,2.474c-.313-2.885-3.283-2.627-5.99-2.915,2.374-3,5.635-5.733,9.955-6.131a25.1,25.1,0,0,0,1.392-3.761,11.52,11.52,0,0,0,.107-6.187c-.789-2.658-2.771-4.649-4.4-6.835a7.181,7.181,0,0,0,.553,2.346,6.956,6.956,0,0,0,2.281,2.9c-.882-.171-1.819-1.12-2.672-.87-.98-1-1.094-2.947-.419-4.728a11.451,11.451,0,0,1-2.047-7.093c.05-1.047.9-.82,1.195-.747a12.212,12.212,0,0,1,7.375,4.76,9.741,9.741,0,0,0,2.359,1.458,9.07,9.07,0,0,0,3.965.759" transform="translate(2.893 1.86)" fill="#f3bb82"/>
      <path id="Path_473" data-name="Path 473" d="M85.964,229.118c-.636-.337-1.333-.514-1.975-.838a3.2,3.2,0,0,1-1.09-.862c-1.779-3.785-2.853-7.775-5.659-11.327.9.647,1.845,1.71,2.873,1.952.613-.529.652-.184,1.478-.289-1.962-.575-3.281-1.975-4.684-2.056a18.961,18.961,0,0,0-3.657-3.365c-.817-.576-1.264-.756-1.183.946a13.4,13.4,0,0,0,.506,3.479c.093.286.165.52.226.728a6.621,6.621,0,0,0-.386,3.777c.789.28,1.042,1.46,1.559,2.148q-.4-2.368-.8-4.736a9.634,9.634,0,0,0,.776,1.45c2.183,3.578,5.024,3.873,8.535,7.469a12.849,12.849,0,0,0,2.963,7.005c-.531-2.355.935-1.729,1.918-3.846a2.59,2.59,0,0,0-1.4-1.634" transform="translate(6.555 19.278)" fill="#f3bb82"/>
      <path id="Path_474" data-name="Path 474" d="M152.6,216.8a30.939,30.939,0,0,0-5.781-11.166,28.039,28.039,0,0,0-12-8.6,6.233,6.233,0,0,0,3.967-1.352c-.463-1.159,1-2.515,1.21-3.747a10.953,10.953,0,0,1-4.482,3.366,13.022,13.022,0,0,1-3.579.919l-.08-.019c-5.7-1.162-11.527.327-14.725,4.207,2.3,3.686,7.157,5.171,11.322,5.49.189.014.379.026.568.037,1.663,2.418,4.129,4.143,6.165,4.08.415-1.176,2.408-1.234,3.379-2.023a10.955,10.955,0,0,1-5.59-.42,12.987,12.987,0,0,1-3.193-1.6c3.735.179,7.511.035,11.134,1.545a19.939,19.939,0,0,1,7.484,5.891,40.332,40.332,0,0,1,3.264,4.708,9.736,9.736,0,0,1-.275,3.375c-.493,2.023-1.382,4.008-1.84,6.033s-.421,4.218.787,5.561c1.72-3.806,6.968-1.743,11.161-.1a47.613,47.613,0,0,0-8.9-16.184" transform="translate(10.654 17.459)" fill="#f3bb82"/>
      <path id="Path_475" data-name="Path 475" d="M88.969,140.532a2.3,2.3,0,0,1-.02-1.407,4.208,4.208,0,0,0,2.384,2.63c1.163.634,2.483,1.078,3.632,1.728a3.933,3.933,0,0,1,2.253,2.688c-2.539-.844-3.887,2.338-4.967,4.878a14.906,14.906,0,0,1-3.667-10.893l.385.376" transform="translate(8.054 12.656)" fill="#f3bb82"/>
      <path id="Path_476" data-name="Path 476" d="M88.064,118.718a13.3,13.3,0,0,1-3.8-3.735c.835,3.254,3.071,6.145,5.336,6.647.693-1.037,2.638-.6,3.773-1.127a10.959,10.959,0,0,1-5.313-1.785" transform="translate(7.666 10.459)" fill="#f3bb82"/>
      <path id="Path_477" data-name="Path 477" d="M77.108,123.65a13.3,13.3,0,0,1,1.07-5.216c-2.277,2.469-3.487,5.919-2.675,8.093,1.247.016,1.94,1.885,3,2.553a10.954,10.954,0,0,1-1.393-5.43" transform="translate(6.845 10.773)" fill="#f3bb82"/>
      <path id="Path_478" data-name="Path 478" d="M87.213,134.054c-.775-3.923.9-9.075.166-13.005-.84-4.486-3.119-8.488-4.926-12.648-.547-1.256-1.586-1.919-2.44-.507a18.292,18.292,0,0,0-2.473,12.915,48.322,48.322,0,0,0,15.479,26.054c-3.621-5.462-4.866-8.05-5.805-12.809" transform="translate(7.024 9.742)" fill="#f3bb82"/>
      <path id="Path_479" data-name="Path 479" d="M10.266,147.506a2.3,2.3,0,0,1-.02-1.407,4.209,4.209,0,0,0,2.383,2.63c1.164.634,2.484,1.078,3.633,1.728a3.933,3.933,0,0,1,2.253,2.688c-2.539-.844-3.887,2.338-4.967,4.878A14.906,14.906,0,0,1,9.881,147.13l.385.376" transform="translate(0.894 13.29)" fill="#f3bb82"/>
      <path id="Path_480" data-name="Path 480" d="M15.568,126.2a15.535,15.535,0,0,1-2.885-5.508c-.236,3.915,1.218,7.929,3.558,9.3,1.14-.906,3.146.273,4.6.095a12.8,12.8,0,0,1-5.269-3.882" transform="translate(1.151 10.979)" fill="#f3bb82"/>
      <path id="Path_481" data-name="Path 481" d="M3.08,127.236A15.539,15.539,0,0,1,6.7,122.184C3.1,123.733.168,126.836,0,129.54c1.321.61,1.171,2.934,1.981,4.148a12.8,12.8,0,0,1,1.1-6.452" transform="translate(0 11.114)" fill="#f3bb82"/>
      <path id="Path_482" data-name="Path 482" d="M10.23,139.84c.377-3.993,3.447-8.446,3.863-12.435A33.064,33.064,0,0,0,12.2,113.522c-.315-.976-1.074-2.125-2.166-1.051-2.313,2.276-5.1,7.982-5.677,12.341-1.368,10.259,2.385,20.289,7.764,29.027-1.9-6.307-2.352-9.156-1.894-14" transform="translate(0.371 10.192)" fill="#f3bb82"/>
      <path id="Path_483" data-name="Path 483" d="M98.321,163.007a.889.889,0,0,0-.292-.458,1.625,1.625,0,0,1-.211,1.354c-.241.451-.573.874-.805,1.327a1.518,1.518,0,0,0-.156,1.344c.639-.809,1.749-.07,2.635.52a5.756,5.756,0,0,0-1.126-4.29c-.015.068-.029.135-.045.2" transform="translate(8.801 14.786)" fill="#f3bb82"/>
      <path id="Path_484" data-name="Path 484" d="M94.493,161.256a4.609,4.609,0,0,0-1.047-3.926A3.419,3.419,0,0,1,95.309,160c-.454.142-.5.9-.816,1.261" transform="translate(8.5 14.312)" fill="#f3bb82"/>
      <path id="Path_485" data-name="Path 485" d="M97.376,157.053a4.609,4.609,0,0,0-3.893-1.167,3.419,3.419,0,0,1,3.247-.189c-.117.461.5.9.646,1.356" transform="translate(8.504 14.133)" fill="#f3bb82"/>
      <path id="Path_486" data-name="Path 486" d="M90.969,155.637a4.378,4.378,0,0,1,4.437.235,7.588,7.588,0,0,1,3.117,4.01,9.034,9.034,0,0,1,.237,4.948,15.98,15.98,0,0,0-.595-2.659,5.609,5.609,0,0,0-1.44-2.328,10.846,10.846,0,0,0-3.229-1.624,4.052,4.052,0,0,1-2.527-2.581" transform="translate(8.275 14.112)" fill="#f3bb82"/>
      <path id="Path_487" data-name="Path 487" d="M100.43,176a1.107,1.107,0,0,1-.356-.559,1.951,1.951,0,0,0,1.575.478c.608-.027,1.23-.168,1.836-.185a1.828,1.828,0,0,1,1.539.533c-1.71,1.778-.16,1.946-1.015,3.344-1.9-.668-2.207-2.744-3.823-3.669l.242.058" transform="translate(9.103 15.96)" fill="#f3bb82"/>
      <path id="Path_488" data-name="Path 488" d="M99.338,169.678a6.369,6.369,0,0,1-5.581-.624c1.12,1.372,2.831,2.26,4.026,2,.1-.649,1.129-.872,1.556-1.375" transform="translate(8.529 15.378)" fill="#f3bb82"/>
      <path id="Path_489" data-name="Path 489" d="M93.843,176.732a6.366,6.366,0,0,0-2.1-5.207c1.622.708,2.937,2.119,3.006,3.341-.6.271-.537,1.321-.907,1.867" transform="translate(8.346 15.603)" fill="#f3bb82"/>
      <path id="Path_490" data-name="Path 490" d="M94.727,169.466c2.99,2.063,3.953,4.782,8.043,8.05-4.315-2.279-8.763-2.4-13.178-8.2a.571.571,0,0,1,.465-.952c1.423.1,3.476.278,4.67,1.1" transform="translate(8.137 15.315)" fill="#f3bb82"/>
      <path id="Path_491" data-name="Path 491" d="M136.866,319.875c-1.383-.629-3.2-.056-4.756.882s-2.988,2.222-4.538,3.189a8.651,8.651,0,0,1-2.7,1.156c-6.627-4.44-11.55-12.332-16.918-19.109-.694-.876-1.335-1.671-1.95-2.4a8.01,8.01,0,0,0,5.311,1.222c.265-1.564,2.751-2.068,3.8-3.267a13.936,13.936,0,0,1-7.1.685,16.6,16.6,0,0,1-4.536-1.394c-3.564-3.456-7.275-4.955-16.37-6.979-1.449-.322-3.024.157-1.991,2.711,1.41,3.482,2.639,6.927,5.217,10.4.884,1.189,1.846,2.355,2.871,3.493.227,3.129.7,6.382,2.539,8.735,2.09-.073,3.755,2.432,5.588,3.558l-6.208-10.277c7.786,7.748,18.674,13.685,29.894,14.451a20.8,20.8,0,0,0,14.337,2.221c.3-4.9-4.493-2.119-2.487-9.272" transform="translate(7.712 26.723)" fill="#f3bb82"/>
      <path id="Path_492" data-name="Path 492" d="M149.77,299.857c-.778-1.166-2.478-1.6-4.155-1.622s-3.423.288-5.109.292a8.89,8.89,0,0,1-2.077-.227,33.588,33.588,0,0,1-10.155-8.467c-3.262-3.9-4.54-10.677-7.763-14.612-.225-.275-.47-.529-.7-.794a7.5,7.5,0,0,0,4.7.49c.137-1.581,2.575-2.284,3.521-3.563A13.941,13.941,0,0,1,121,272.609a16.382,16.382,0,0,1-3.673-.7c-3.122-2.842-6.7-5.194-10.047-7.792-1.376-1.067-2.942-1.172-3.032.926a23.489,23.489,0,0,0,4.6,15.247c-.653,3.828.152,7.795,2.188,9.554,1.4-.744,3.317.919,4.9,1.016a13.938,13.938,0,0,1-4.872-5.206,16.634,16.634,0,0,1-1.73-4.746c.015.017.028.036.044.055a60.52,60.52,0,0,0,27.322,17.975,19.05,19.05,0,0,0,10.5,9.392c-.348-3.493-.788-7.867,2.559-8.477" transform="translate(9.481 23.958)" fill="#f3bb82"/>
      <path id="Path_493" data-name="Path 493" d="M78.909,195.573a6.885,6.885,0,0,1-3.7-2.031c3.1,1.166,7.008-.225,10.383-2.319s6.485-4.877,9.881-6.908,7.337-3.269,10.34-1.892c-5.957,5.365.34,13.589,5.362,20.164-12.787,2.28-24.426-.134-33.821-6.568.516-.151,1.034-.3,1.551-.446" transform="translate(6.842 16.541)" fill="#f3bb82"/>
      <path id="Path_494" data-name="Path 494" d="M68.212,122.674a36.024,36.024,0,0,1-1.276-14.366c-3.99,8.177-4.449,18.069-.653,23.077,3.249-.926,6.5,3.385,9.763,4.294a29.683,29.683,0,0,1-7.833-13.005" transform="translate(5.792 9.852)" fill="#f3bb82"/>
      <path id="Path_495" data-name="Path 495" d="M33.843,115.563a36.023,36.023,0,0,1,8.4-11.72c-8.359,3.594-15.159,10.792-15.551,17.064,3.067,1.417,2.718,6.805,4.6,9.623a29.667,29.667,0,0,1,2.547-14.967" transform="translate(2.428 9.446)" fill="#f3bb82"/>
      <path id="Path_496" data-name="Path 496" d="M74.358,69.622c-17.21,8.634-31.181,25.317-37.141,45-6.949,22.951-2.8,49.291,10.7,67.846s35.921,28.769,57.769,26.306a47.332,47.332,0,0,1-35.791-15.73c-9.268-10.227-14.474-24.741-14.106-39.33.325-12.956,8.121-23.5,12.525-35.637,4.956-13.662,9.07-26.759,13.29-41.554,3-10.535-4.386-8.336-7.243-6.9" transform="translate(3.084 6.222)" fill="#f3bb82"/>
      <path id="Path_497" data-name="Path 497" d="M178.441,260.279a65.982,65.982,0,0,0-37.279-17.3c-6.539-.779-13.556-.719-18.868-4.429-.215-.151-.421-.314-.629-.475,3.335,1.623,8.4,1.655,15.686-3.925a14.377,14.377,0,0,1-11.183-.16c-4.032-.14-6.708.173-9.4-1.428-2.031-3.076-3.692-6.6-5.469-9.916-2.744-5.123-6.245-10.148-11.242-11.941a3.676,3.676,0,0,0-4.045,2.428c-7.333,16.481-.286,34.419,10.771,42.254a26.873,26.873,0,0,0,5.119,2.834c3.008,3.569,6.424,7.067,10.69,8.3,2.46-1.918,6.663-.351,9.859-.6l-13.266-5.609c8.177,1.434,17.269.454,25.986-.54,10.253-1.168,21.05-2.088,30.08,1.066a17.616,17.616,0,0,1,2.137,8.781c.094,4.348-.6,8.863-.44,13.192s1.382,8.685,4.438,10.619c1.367-8.671,12.674-7.8,21.706-7.121a92.59,92.59,0,0,0-24.649-26.029" transform="translate(8.46 19.159)" fill="#f3bb82"/>
    </g>
  </g>
</svg>
