<svg xmlns="http://www.w3.org/2000/svg" xmlns:xlink="http://www.w3.org/1999/xlink" width="380.022" height="457.954" viewBox="0 0 380.022 457.954">
  <defs>
    <clipPath id="clip-path">
      <rect id="Rectangle_394" data-name="Rectangle 394" width="256.565" height="392.049" fill="#f3bb82"/>
    </clipPath>
  </defs>
  <g id="Group_1442" data-name="Group 1442" transform="translate(380.022 366.01) rotate(159)" opacity="0.16">
    <g id="Group_1440" data-name="Group 1440" transform="translate(0 0)" clip-path="url(#clip-path)">
      <path id="Path_461" data-name="Path 461" d="M148.361,219.2A40.275,40.275,0,0,1,134.3,235.272c1.563-.84,3.244-2.143,4.911-2.318.924.912,1.057.4,2.42.7-3.472.537-5.991,2.5-8.4,2.287a38.136,38.136,0,0,1-9.872,4.327,15,15,0,0,1,4.922-9.443c.064-1.879.84-4.545,2.353-5.814,1.339.241,2.677-1.064,3.976-1.547a40.875,40.875,0,0,0-5.582,6.659,34.462,34.462,0,0,1,5.72-4.088c3.992-2.321,8.336-4.332,11.843-7.248a7.075,7.075,0,0,0-.253-1.626c-.381-1.414-1.065-2.8-1.418-4.216a4.088,4.088,0,0,1,.606-3.887c3.725,2.084,6.055,2.862,8.6.071a32.534,32.534,0,0,1-5.753,10.069" transform="translate(39.856 -99.203)" fill="#f3bb82"/>
      <path id="Path_462" data-name="Path 462" d="M85.608,137.113c-12.625,5.921-20.75,19.119-22.56,30.98-.566,3.706-.016,6.83.4,10.057.306,2.369,1.842,2.077,2.906,1.231,9.315-7.412,10.337-9.7,11.871-17.871,1.612-8.589,2.015-18.081,7.383-24.4" transform="translate(20.293 47.441)" fill="#f3bb82"/>
      <path id="Path_463" data-name="Path 463" d="M78.253,178.275a2.724,2.724,0,0,0-1,1.414c.951-1,2.747-1.256,4.487-1.167s3.521.469,5.255.533,3.512-.255,4.379-1.307c-4.952-4.594.328-4.478-2.166-8.069-5.4,1.638-9.379,4.7-11.649,8.735l.691-.139" transform="translate(24.962 8.653)" fill="#f3bb82"/>
      <path id="Path_464" data-name="Path 464" d="M65.243,149.381,64.6,163.106c-1.433-2.742-2.925-5.8-2.4-8.7,1.781-.814,2.027-3.406,3.043-5.022" transform="translate(20.063 49.605)" fill="#f3bb82"/>
      <path id="Path_465" data-name="Path 465" d="M76.833,149.792a15.161,15.161,0,0,0-4.221,4.435c.688-3.644,3.108-7.014,5.8-7.765.938,1.076,3.247.425,4.671.9a14.016,14.016,0,0,0-6.248,2.43" transform="translate(23.461 61.988)" fill="#f3bb82"/>
      <path id="Path_466" data-name="Path 466" d="M81.677,98.36c-9.2-5.17-16.035-14.668-16.289-26.476-.159-7.416,1.889-15.395.365-22.358-3.522-16.083-23.928-19.8-29.575-34.821,9.435,5.987,20.046,10.682,28.3,17.964C89.4,54.638,89.768,78.054,88.618,96.788c-.356,5.806-5.225,2.536-6.941,1.572" transform="translate(11.689 274.244)" fill="#f3bb82"/>
      <path id="Path_467" data-name="Path 467" d="M42.033,98.912a4.541,4.541,0,0,0,2.478.682c-1.844-.783-2.91-2.88-3.437-5.04s-.64-4.482-1.207-6.626-1.713-4.195-3.605-4.856c-.582,5.664-6.113,5.155-11.155,5.715A27.624,27.624,0,0,0,42.5,99.7c-.156-.265-.314-.528-.47-.792" transform="translate(8.112 192.613)" fill="#f3bb82"/>
      <path id="Path_468" data-name="Path 468" d="M58.365,44.78a27.1,27.1,0,0,0,6.915,8.751C58.4,50.847,52.808,45.474,52.486,40.79c2.522-1.058,2.233-5.081,3.781-7.185a20.338,20.338,0,0,0,2.1,11.175" transform="translate(16.958 298.174)" fill="#f3bb82"/>
      <path id="Path_469" data-name="Path 469" d="M79.589,38.049a25.116,25.116,0,0,0-3.422,10.31c-1.854-6.581-.574-13.883,3.318-16.971,2.464,1.168,5.8-1.493,8.582-1.664a23.185,23.185,0,0,0-8.478,8.325" transform="translate(24.34 308.005)" fill="#f3bb82"/>
      <path id="Path_470" data-name="Path 470" d="M104.265,183.28c-5.025,2.6-.7,4.824-1.916,10.369-1.589.832-3.832.4-5.815-.461s-3.848-2.108-5.822-3a11.068,11.068,0,0,0-3.481-.987c-5.446,1.744-11.336,1.15-15.6,6.21-1.283,1.521-2.915,3.632-4.612,5.688a17.978,17.978,0,0,1,8.313,1.455c-3.976-.339-5.708,1.2-7.35,2.39-2.342.635-3.367-.022-5.267.888-.152.143-.306.285-.455.415-2.489,2.18-7.73,8.735-16.823,9.966a21.293,21.293,0,0,1,6.981-17.646c.925-3.159,2.15-6.411,4.731-8.463,2.322.479,4.72-1.74,7.008-2.526l-7.923,8a47.319,47.319,0,0,1,17.6-6.561l13.955-2.123a27.266,27.266,0,0,1,16.485-3.615" transform="translate(14.663 -44.087)" fill="#f3bb82"/>
      <path id="Path_471" data-name="Path 471" d="M48.426,46.13a19.113,19.113,0,0,0-5.187-7.967A10.94,10.94,0,0,1,41.665,33.3a9.082,9.082,0,0,1,1.469-5.651c-1.376.746-2.17,2.7-3.85,2.79-.688,1.693.172,4.029,1.985,6.114-.159-.121-.331-.232-.49-.343-4.088-2.749-8.785-5.005-11.723-8.782a17.1,17.1,0,0,1-3.387-9.166,34.679,34.679,0,0,1,.265-6.939,6.1,6.1,0,0,1,1.535-1.984c1.164-1.058,2.62-1.994,3.744-3.061s1.945-2.367,1.508-3.465C28.792,4.7,26.608,2.035,23.949,0a12.134,12.134,0,0,0,.622,11.6,24.67,24.67,0,0,0-3.056,13.758A24.746,24.746,0,0,0,30.022,41.83a22.555,22.555,0,0,0,2.2,1.671,18.675,18.675,0,0,1-5.147-2.6,11.3,11.3,0,0,1-4.022-4.875c-.331,1.259.847,3.1-.291,4.039,1.323,2.065,5.531,3.566,9.884,3.717a23.355,23.355,0,0,0,12.993,3.868c.953-.02,3.255-.05,2.792-1.521" transform="translate(6.928 344.392)" fill="#f3bb82"/>
      <path id="Path_472" data-name="Path 472" d="M55.632,50.206c-.947-.438-2.689-.283-3.2-1.044a5.982,5.982,0,0,0-3.2,1.49A16,16,0,0,0,50.212,38.8a21.558,21.558,0,0,0-7.453-10.583l-.008-.007a6,6,0,0,1-.544-1.321c-.344-1.213-.422-2.514-.783-3.72a3.84,3.84,0,0,0-2.352-2.723c-.38,3.174-3.981,2.891-7.265,3.208,2.879,3.3,6.834,6.309,12.073,6.747a26.051,26.051,0,0,1,1.688,4.138,11.549,11.549,0,0,1,.13,6.808c-.957,2.925-3.361,5.116-5.333,7.521a7.3,7.3,0,0,1,.671-2.581A7.825,7.825,0,0,1,43.8,43.1c-1.069.188-2.206,1.233-3.24.957-1.188,1.1-1.327,3.243-.508,5.2a11.771,11.771,0,0,0-2.482,7.806c.061,1.153,1.086.9,1.449.822a15.015,15.015,0,0,0,8.944-5.238,12.1,12.1,0,0,1,7.669-2.44" transform="translate(10.277 309.538)" fill="#f3bb82"/>
      <path id="Path_473" data-name="Path 473" d="M88.923,217.957c-.771.371-1.617.565-2.395.922a3.847,3.847,0,0,0-1.322.948c-2.158,4.165-3.46,8.556-6.863,12.465,1.1-.712,2.237-1.881,3.484-2.148.744.582.791.2,1.793.318-2.379.633-3.979,2.173-5.68,2.263a22.312,22.312,0,0,1-4.435,3.7c-.991.634-1.533.832-1.434-1.041a13.485,13.485,0,0,1,.614-3.829c.112-.315.2-.573.274-.8a6.661,6.661,0,0,1-.468-4.156c.957-.309,1.264-1.606,1.891-2.364q-.486,2.606-.971,5.212a10.3,10.3,0,0,1,.941-1.6c2.648-3.938,6.093-4.262,10.351-8.219a13.5,13.5,0,0,1,3.594-7.709c-.644,2.592,1.134,1.9,2.326,4.232a2.949,2.949,0,0,1-1.7,1.8" transform="translate(23.283 -99.254)" fill="#f3bb82"/>
      <path id="Path_474" data-name="Path 474" d="M160.144,209.856a33.047,33.047,0,0,1-7.011,12.288,34.113,34.113,0,0,1-14.553,9.469,8.056,8.056,0,0,1,4.811,1.488c-.561,1.275,1.212,2.767,1.467,4.124a13.235,13.235,0,0,0-5.435-3.7,17.1,17.1,0,0,0-4.341-1.011l-.1.02c-6.911,1.279-13.98-.36-17.858-4.629,2.786-4.057,8.68-5.691,13.731-6.041.229-.016.459-.029.689-.041,2.016-2.66,5.008-4.56,7.477-4.49.5,1.294,2.92,1.358,4.1,2.226a14.579,14.579,0,0,0-6.78.462,16.441,16.441,0,0,0-3.873,1.755c4.53-.2,9.11-.038,13.5-1.7a23.975,23.975,0,0,0,9.077-6.483,44.556,44.556,0,0,0,3.959-5.18,9.757,9.757,0,0,0-.333-3.714c-.6-2.226-1.676-4.411-2.232-6.639s-.511-4.641.954-6.119c2.087,4.189,8.451,1.918,13.535.11a51.191,51.191,0,0,1-10.789,17.81" transform="translate(37.844 -75.601)" fill="#f3bb82"/>
      <path id="Path_475" data-name="Path 475" d="M89.062,150.7a2.306,2.306,0,0,0-.024,1.549c.21-1.2,1.479-2.2,2.891-2.895s3.011-1.186,4.4-1.9,2.616-1.749,2.732-2.958c-3.079.929-4.714-2.573-6.024-5.368-3.357,3.669-4.833,7.822-4.447,11.987l.467-.414" transform="translate(28.606 72.776)" fill="#f3bb82"/>
      <path id="Path_476" data-name="Path 476" d="M88.872,118.187a15.512,15.512,0,0,0-4.6,4.111c1.012-3.581,3.725-6.763,6.471-7.315.84,1.142,3.2.663,4.575,1.24a14.229,14.229,0,0,0-6.444,1.964" transform="translate(27.228 131.709)" fill="#f3bb82"/>
      <path id="Path_477" data-name="Path 477" d="M77.5,124.409a13.473,13.473,0,0,0,1.3,5.74c-2.761-2.717-4.229-6.513-3.244-8.906,1.512-.018,2.352-2.075,3.636-2.809a11.2,11.2,0,0,0-1.69,5.975" transform="translate(24.314 119.715)" fill="#f3bb82"/>
      <path id="Path_478" data-name="Path 478" d="M89.341,121.2c-.939,4.317,1.1,9.986.2,14.312-1.019,4.937-3.783,9.34-5.974,13.918-.663,1.382-1.924,2.112-2.96.558-2-2.991-4.348-8.261-3-14.212,2.519-11.119,9.491-21.227,18.772-28.671-4.391,6.011-5.9,8.859-7.04,14.1" transform="translate(24.947 112.612)" fill="#f3bb82"/>
      <path id="Path_479" data-name="Path 479" d="M10.359,157.672a2.306,2.306,0,0,0-.024,1.549c.21-1.2,1.479-2.2,2.89-2.895s3.013-1.186,4.406-1.9,2.616-1.749,2.732-2.958c-3.079.929-4.714-2.573-6.024-5.368-3.357,3.669-4.833,7.822-4.447,11.987l.467-.414" transform="translate(3.177 57.43)" fill="#f3bb82"/>
      <path id="Path_480" data-name="Path 480" d="M16.187,124.984a16.626,16.626,0,0,0-3.5,6.062c-.286-4.309,1.477-8.726,4.315-10.229,1.383,1,3.816-.3,5.574-.1a15.538,15.538,0,0,0-6.391,4.272" transform="translate(4.09 116.107)" fill="#f3bb82"/>
      <path id="Path_481" data-name="Path 481" d="M3.735,129.284a17.239,17.239,0,0,0,4.394,5.56c-4.37-1.7-7.925-5.119-8.129-8.1,1.6-.671,1.42-3.228,2.4-4.564a12.932,12.932,0,0,0,1.332,7.1" transform="translate(0 110.518)" fill="#f3bb82"/>
      <path id="Path_482" data-name="Path 482" d="M11.539,127.444c.458,4.394,4.181,9.295,4.685,13.684.606,5.278-.474,10.167-2.293,15.278-.382,1.074-1.3,2.339-2.626,1.156-2.8-2.5-6.18-8.783-6.885-13.581-1.659-11.29,2.892-22.327,9.417-31.943-2.306,6.94-2.853,10.076-2.3,15.405" transform="translate(1.317 99.504)" fill="#f3bb82"/>
      <path id="Path_483" data-name="Path 483" d="M98.654,167.046a.974.974,0,0,1-.355.5,1.648,1.648,0,0,0-.255-1.49c-.292-.5-.695-.962-.976-1.46a1.538,1.538,0,0,1-.189-1.479c.775.891,2.121.077,3.2-.573a5.912,5.912,0,0,1-1.365,4.721c-.019-.074-.036-.149-.054-.223" transform="translate(31.262 29.351)" fill="#f3bb82"/>
      <path id="Path_484" data-name="Path 484" d="M94.716,157.33a4.736,4.736,0,0,1-1.27,4.321c1.338-.718,2.331-1.96,2.26-2.933-.55-.156-.609-.992-.99-1.388" transform="translate(30.193 41.517)" fill="#f3bb82"/>
      <path id="Path_485" data-name="Path 485" d="M98.2,155.367a5.968,5.968,0,0,1-4.721,1.285,4.519,4.519,0,0,0,3.938.208c-.142-.508.611-.992.783-1.492" transform="translate(30.205 48.302)" fill="#f3bb82"/>
      <path id="Path_486" data-name="Path 486" d="M90.969,165.253a5.776,5.776,0,0,0,5.381-.258,8.524,8.524,0,0,0,3.78-4.413,9.064,9.064,0,0,0,.287-5.444,16.207,16.207,0,0,1-.721,2.926,6.115,6.115,0,0,1-1.746,2.562,13.717,13.717,0,0,1-3.916,1.788c-1.338.531-2.759,1.485-3.064,2.84" transform="translate(29.393 39.997)" fill="#f3bb82"/>
      <path id="Path_487" data-name="Path 487" d="M100.505,179.42a1.212,1.212,0,0,0-.431.615,2.528,2.528,0,0,1,1.911-.526c.737.03,1.491.185,2.227.2a2.352,2.352,0,0,0,1.867-.587c-2.073-1.957-.195-2.142-1.23-3.68-2.3.735-2.677,3.019-4.636,4.037l.294-.064" transform="translate(32.334 1.384)" fill="#f3bb82"/>
      <path id="Path_488" data-name="Path 488" d="M100.526,170.617a8.415,8.415,0,0,0-6.769.687c1.359-1.51,3.433-2.488,4.882-2.2.123.714,1.369.959,1.887,1.513" transform="translate(30.293 17.788)" fill="#f3bb82"/>
      <path id="Path_489" data-name="Path 489" d="M94.29,171.525a6.677,6.677,0,0,1-2.546,5.73c1.967-.779,3.562-2.331,3.645-3.676-.726-.3-.651-1.454-1.1-2.054" transform="translate(29.643 8.87)" fill="#f3bb82"/>
      <path id="Path_490" data-name="Path 490" d="M95.85,177.221c3.627-2.27,4.794-5.262,9.754-8.859-5.233,2.508-10.627,2.638-15.982,9.023a.629.629,0,0,0,.564,1.048c1.725-.109,4.215-.306,5.664-1.213" transform="translate(28.901 11.486)" fill="#f3bb82"/>
      <path id="Path_491" data-name="Path 491" d="M147.948,304.406c-1.678.693-3.875.061-5.767-.97s-3.624-2.445-5.5-3.509a11.085,11.085,0,0,0-3.279-1.273c-8.037,4.886-14.008,13.571-20.517,21.029-.841.964-1.619,1.839-2.364,2.645a10.523,10.523,0,0,1,6.441-1.345c.322,1.722,3.337,2.276,4.606,3.6a18.524,18.524,0,0,0-8.608-.754,21.676,21.676,0,0,0-5.5,1.534c-4.323,3.8-8.822,5.453-19.853,7.68-1.757.354-3.668-.173-2.415-2.983,1.709-3.832,3.2-7.622,6.327-11.444,1.072-1.309,2.239-2.592,3.482-3.844.275-3.443.852-7.023,3.079-9.613,2.535.08,4.554-2.676,6.777-3.915l-7.528,11.309c9.443-8.526,22.648-15.06,36.254-15.9a27.464,27.464,0,0,1,17.388-2.444c.365,5.389-5.449,2.331-3.017,10.2" transform="translate(27.394 -293.768)" fill="#f3bb82"/>
      <path id="Path_492" data-name="Path 492" d="M159.46,272.705c-.943,1.283-3,1.759-5.04,1.785s-4.152-.317-6.2-.322a11.84,11.84,0,0,0-2.519.25,40.068,40.068,0,0,0-12.315,9.317c-3.956,4.3-5.505,11.75-9.415,16.08-.273.3-.57.582-.855.874a9.955,9.955,0,0,1,5.7-.539c.167,1.74,3.123,2.514,4.27,3.921a18.423,18.423,0,0,0-8.513-1.382,21.685,21.685,0,0,0-4.455.766c-3.787,3.127-8.123,5.716-12.184,8.574-1.668,1.174-3.568,1.289-3.677-1.019a24.156,24.156,0,0,1,5.577-16.779c-.793-4.213.184-8.578,2.654-10.513,1.7.819,4.022-1.011,5.949-1.118a16.076,16.076,0,0,0-5.909,5.729,17.26,17.26,0,0,0-2.1,5.222c.019-.019.034-.04.053-.06,8.694-9.292,20.443-16.008,33.136-19.78,2.438-4.587,6.768-8.192,12.738-10.335-.422,3.844-.955,8.657,3.1,9.328" transform="translate(33.677 -236.996)" fill="#f3bb82"/>
      <path id="Path_493" data-name="Path 493" d="M79.7,190.483a8.618,8.618,0,0,0-4.483,2.235c3.766-1.283,8.5.247,12.592,2.552s7.865,5.366,11.983,7.6,8.9,3.6,12.54,2.082c-7.224-5.9.413-14.954,6.5-22.19-15.508-2.509-29.623.148-41.018,7.227.626.166,1.254.327,1.881.491" transform="translate(24.302 -31.854)" fill="#f3bb82"/>
      <path id="Path_494" data-name="Path 494" d="M69.178,122.62a36.142,36.142,0,0,0-1.548,15.809c-4.839-9-5.4-19.883-.793-25.4,3.94,1.019,7.882-3.725,11.84-4.725a32.288,32.288,0,0,0-9.5,14.312" transform="translate(20.574 123.592)" fill="#f3bb82"/>
      <path id="Path_495" data-name="Path 495" d="M35.363,120.313a39.963,39.963,0,0,0,10.193,12.9c-10.138-3.955-18.385-11.876-18.86-18.778,3.719-1.56,3.3-7.489,5.577-10.59a29.979,29.979,0,0,0,3.089,16.47" transform="translate(8.626 134.17)" fill="#f3bb82"/>
      <path id="Path_496" data-name="Path 496" d="M82.967,221.926c-20.872-9.5-37.816-27.86-45.044-49.521-8.428-25.256-3.391-54.242,12.973-74.661S94.46,66.086,120.957,68.8A60.229,60.229,0,0,0,77.55,86.105a59.521,59.521,0,0,0-17.108,43.281c.394,14.258,9.849,25.859,15.191,39.217,6.011,15.034,11,29.447,16.118,45.728,3.644,11.594-5.319,9.173-8.784,7.6" transform="translate(10.953 86.661)" fill="#f3bb82"/>
      <path id="Path_497" data-name="Path 497" d="M196.62,247.1a83.812,83.812,0,0,1-45.212,19.042c-7.931.857-16.441.791-22.883,4.874-.261.166-.511.346-.763.522,4.045-1.786,10.191-1.821,19.024,4.32a19.075,19.075,0,0,0-13.563.176c-4.89.154-8.136-.191-11.4,1.572-2.464,3.385-4.477,7.261-6.633,10.912-3.328,5.638-7.573,11.167-13.635,13.14a4.569,4.569,0,0,1-4.906-2.672c-8.894-18.137-.347-37.876,13.063-46.5a33.7,33.7,0,0,1,6.208-3.119c3.648-3.927,7.79-7.777,12.965-9.131,2.984,2.111,8.08.387,11.957.657l-16.089,6.172c9.917-1.578,20.943-.5,31.515.594,12.435,1.286,25.529,2.3,36.481-1.173,1.789-2.58,2.509-6.14,2.592-9.663.114-4.784-.732-9.753-.533-14.517s1.676-9.558,5.382-11.686c1.658,9.542,15.371,8.587,26.324,7.836A106.889,106.889,0,0,1,196.62,247.1" transform="translate(30.05 -162.555)" fill="#f3bb82"/>
    </g>
  </g>
</svg>
