<svg xmlns="http://www.w3.org/2000/svg" width="18.454" height="18.454" viewBox="0 0 18.454 18.454">
  <g id="Group_102" data-name="Group 102" transform="translate(-377 -6915.82)">
    <g id="Group_34" data-name="Group 34" transform="translate(-955.465 6779.331)">
      <circle id="Ellipse_41" data-name="Ellipse 41" cx="8.727" cy="8.727" r="8.727" transform="translate(1332.965 136.989)" fill="none" stroke="#a47d4c" stroke-linecap="round" stroke-linejoin="round" stroke-width="1"/>
      <path id="Path_205" data-name="Path 205" d="M1342.771,150.277a2.516,2.516,0,0,0,3.161-.986.618.618,0,0,0-.151-.837l-1.424-1.14a.53.53,0,0,0-.8.042c-.4.32-.55.426-.55.426l-.233.178a.446.446,0,0,1-.489-.013,6.988,6.988,0,0,1-2.709-3.123.445.445,0,0,1,.086-.481l.221-.193s.135-.125.529-.452a.529.529,0,0,0,.2-.769l-.827-1.626a.618.618,0,0,0-.789-.317,2.516,2.516,0,0,0-1.606,2.9A8.835,8.835,0,0,0,1342.771,150.277Z" fill="none" stroke="#a47d4c" stroke-linecap="round" stroke-linejoin="round" stroke-width="1"/>
    </g>
  </g>
</svg>
