<svg xmlns="http://www.w3.org/2000/svg" width="131.794" height="33.18" viewBox="0 0 131.794 33.18">
  <g id="Group_104" data-name="Group 104" transform="translate(-339.774 -114.485)">
    <path id="Path_378" data-name="Path 378" d="M438.034,143.434a9.223,9.223,0,0,0,3.277-3.212l.074-.151-1.738-1.146-.076.239a11.9,11.9,0,0,1-2.072,3.7l-.116.134.522.519Z" transform="translate(-48.837 -12.228)" fill="#ad7b43"/>
    <path id="Path_379" data-name="Path 379" d="M424.283,131.552c-.021.092-.045.193-.055.227q-.039.124-.082.248-.058.165-.12.329-.078.2-.162.4-.1.237-.208.471-.124.268-.257.531-.15.3-.31.585-.177.319-.367.631-.207.34-.428.672-.238.358-.492.7-.271.372-.56.731-.307.381-.632.749-.344.39-.707.762-.383.393-.786.767-.425.393-.869.765-.468.391-.956.757-.513.384-1.047.742-.56.375-1.141.719c-.39.231-.785.454-1.187.664l-.183.1.323.8.183-.037a16.028,16.028,0,0,0,4.968-2.182,18.6,18.6,0,0,0,2-1.489v11.959l2.026-1.065V138.2a20.978,20.978,0,0,0,3.838-6.511l.112-.307h-2.867Z" transform="translate(-37.005 -8.454)" fill="#ad7b43"/>
    <rect id="Rectangle_251" data-name="Rectangle 251" width="10.617" height="1.474" transform="translate(379.468 120.729)" fill="#ad7b43"/>
    <path id="Path_380" data-name="Path 380" d="M434.368,145.475l-.823.406.073.193a12.347,12.347,0,0,0,3.883,5.3l.171.117.131-.157c.031-.034.919-1.1,1.165-1.417l.175-.225-.259-.121a9.632,9.632,0,0,1-4.417-3.893Z" transform="translate(-46.917 -15.505)" fill="#ad7b43"/>
    <path id="Path_381" data-name="Path 381" d="M427.583,120.216l.1.284,2.024-1.443-.1-.178a11.2,11.2,0,0,0-4.046-3.693l-.157-.093-.6.641.145.154A14.348,14.348,0,0,1,427.583,120.216Z" transform="translate(-42.545 -0.304)" fill="#ad7b43"/>
    <path id="Path_382" data-name="Path 382" d="M437.2,149.044a20.593,20.593,0,0,0,4.923-4.227c2.416-3.058,3.11-7.311,3.267-10.345v-7.034l-2.027-.694,0,4.9c0,.678,0,1.457,0,2.349-.061,11.026-6.577,14.211-6.642,14.242l-.243.111.536.8Z" transform="translate(-48.382 -6.133)" fill="#ad7b43"/>
    <path id="Path_383" data-name="Path 383" d="M453.469,142.335a2.8,2.8,0,0,1-.789,2.141,3.25,3.25,0,0,1-2.2.731H447.36l0-.029-.231.027H446.9v.941h3.571l.112,0a5.96,5.96,0,0,0,3.85-1.3,3.44,3.44,0,0,0,1.063-2.513V121.667h-2.027v1.025H441.69v1.474h11.779Z" transform="translate(-50.992 -3.593)" fill="#ad7b43"/>
    <g id="Group_101" data-name="Group 101" transform="translate(409.624 116.615)">
      <path id="Path_384" data-name="Path 384" d="M528.355,126.977a2.019,2.019,0,0,1-.423,1.291,1.052,1.052,0,0,1-.793.309h-.227v.918l.2.022a3.2,3.2,0,0,0,.328.014,3.318,3.318,0,0,0,2.171-.714,2.393,2.393,0,0,0,.752-1.7h.014v-2.006h-2.026Z" transform="translate(-503.255 -121.931)" fill="#ad7b43"/>
      <path id="Path_385" data-name="Path 385" d="M507.085,157.679v0a6.145,6.145,0,0,1-.813,2.065,7.8,7.8,0,0,1-4.156,3.281l-.226.081.353.837.18-.033a10.935,10.935,0,0,0,3.077-1.184,6.741,6.741,0,0,0,3.608-4.988l.034-.257h-2.029Z" transform="translate(-490.735 -138.128)" fill="#ad7b43"/>
      <path id="Path_386" data-name="Path 386" d="M503.725,147.682h16.046v-1.474h-4.277V143.56h3.045v-1.474h-3.045v-2.14h-2.026v2.14h-3.441v-2.14H508v2.14h-3.046v1.474H508v2.649h-4.277Zm6.3-1.474V143.56h3.441v2.649Z" transform="translate(-491.654 -129.355)" fill="#ad7b43"/>
      <path id="Path_387" data-name="Path 387" d="M493.873,144.355h-6.388V142.2h6.388v-1.474h-6.388v-4.845h4.362v1.686h-3.631v1.474h5.657v-7.792h-3.694l1.354-1.4-.231-.151a9.78,9.78,0,0,1-2.411-2.357l-.148-.22-.6.552.044.137a10.745,10.745,0,0,0,1.785,3.29l.121.144H485.46v18.4l2.025-1.065v-2.754h6.388Zm-6.388-9.948v-1.685h4.362v1.685Z" transform="translate(-482.515 -122.939)" fill="#ad7b43"/>
      <path id="Path_388" data-name="Path 388" d="M486.716,121.344a12.393,12.393,0,0,0,3.334,4.04l.271.189.228-.273c.278-.332.945-1.133,1.152-1.4l.277-.356-.41-.192a9.99,9.99,0,0,1-4.118-3.441c.134-.3.247-.582.347-.857l.11-.305H485.2l-.039.18a12.937,12.937,0,0,1-5.4,7.249l-.192.128.506.733.164-.055A13.724,13.724,0,0,0,486.716,121.344Z" transform="translate(-479.566 -118.748)" fill="#ad7b43"/>
      <path id="Path_389" data-name="Path 389" d="M505.387,125.808a4.2,4.2,0,0,0,4.464,3.956l.232,0V128.9h-.11l0-.057-.1-.009c-.1-.008-2.474-.245-2.474-3.256v-3.888h4.645v-1.474h-6.672V125.7l.006.1Z" transform="translate(-492.479 -119.484)" fill="#ad7b43"/>
      <path id="Path_390" data-name="Path 390" d="M513.233,126.978a2.047,2.047,0,0,1-.424,1.29,1.047,1.047,0,0,1-.792.309h-.228v.918l.2.022a3.2,3.2,0,0,0,.328.014,3.316,3.316,0,0,0,2.17-.714,2.39,2.39,0,0,0,.753-1.7h.015v-2.006h-2.027Z" transform="translate(-495.689 -121.931)" fill="#ad7b43"/>
      <path id="Path_391" data-name="Path 391" d="M520.5,125.7l.006.1h.007a4.2,4.2,0,0,0,4.464,3.956l.232,0V128.9H525.1l.005-.057-.1-.009c-.1-.008-2.474-.245-2.474-3.256v-3.888h4.645v-1.474H520.5Z" transform="translate(-500.045 -119.484)" fill="#ad7b43"/>
      <path id="Path_392" data-name="Path 392" d="M530.187,163.027a7.8,7.8,0,0,1-4.156-3.281,6.15,6.15,0,0,1-.813-2.067l-.027-.2h-2.03l.034.258a6.742,6.742,0,0,0,3.607,4.987,10.93,10.93,0,0,0,3.078,1.184l.18.032.351-.835Z" transform="translate(-501.378 -138.128)" fill="#ad7b43"/>
    </g>
    <path id="Path_393" data-name="Path 393" d="M375.084,166.644l-.008,0,.008.008Z" transform="translate(-17.663 -26.097)" fill="#070304"/>
    <path id="Subtraction_2" data-name="Subtraction 2" d="M-128.951-5639.425a12.972,12.972,0,0,1-6.609-1.806,13.06,13.06,0,0,1-4.666-4.736,6.885,6.885,0,0,0,.643.714,8.138,8.138,0,0,0,1.557,1.18,7.924,7.924,0,0,0,1.13.54c.194.055.354.1.5.135.208.06.425.107.628.149a13.651,13.651,0,0,0,1.6.228c.281.033.56.042.746.045.05,0,.1,0,.146.005h.239c.324,0,.625-.01.872-.028a22.646,22.646,0,0,0,4.749-.853l.124-.036.013,0c.035-.01.07-.02.1-.032a14.936,14.936,0,0,0-1.221-3.771,11.933,11.933,0,0,0-2.37-3.271,20.186,20.186,0,0,0-3.24-2.473l-.088-.058-.086-.056-.057-.037-.114-.074-.006,0-.186-.121-.108-.07-.006,0c-.316-.2-.709-.459-1.079-.725a8.354,8.354,0,0,1-1.6-1.43,8.021,8.021,0,0,1-1.049-1.591,7.548,7.548,0,0,1-.724-2.291c-.022-.177-.039-.357-.051-.536a12.913,12.913,0,0,1,10.2-4.955,12.9,12.9,0,0,1,9.179,3.8,12.891,12.891,0,0,1,3.8,9.179,12.9,12.9,0,0,1-3.8,9.179A12.9,12.9,0,0,1-128.951-5639.425Zm-.641-22.2a10.136,10.136,0,0,1,1.949.188,9.939,9.939,0,0,1,5.465,2.986,9.995,9.995,0,0,1,2.662,5.631,10.856,10.856,0,0,1-1.145,6.371,9.136,9.136,0,0,0,2.194-6.455,10.149,10.149,0,0,0-.769-3.475,10.044,10.044,0,0,0-1.961-3,10,10,0,0,0-6.3-3.1,9.178,9.178,0,0,0-1.005-.055,9.073,9.073,0,0,0-5.566,1.864A11.3,11.3,0,0,1-129.592-5661.62Z" transform="translate(486.741 5783.478)" fill="#ad7b43" stroke="rgba(0,0,0,0)" stroke-width="1"/>
    <path id="Subtraction_3" data-name="Subtraction 3" d="M-139.256-5663.448a.97.97,0,0,1-.97-.968.971.971,0,0,1,.97-.97.97.97,0,0,1,.968.97A.969.969,0,0,1-139.256-5663.448Zm0-1.5a.536.536,0,0,0-.536.536.536.536,0,0,0,.536.535.535.535,0,0,0,.535-.535A.536.536,0,0,0-139.256-5664.952Z" transform="translate(495.581 5801.154)" fill="#ad7b43" stroke="rgba(0,0,0,0)" stroke-width="1"/>
    <path id="Path_398" data-name="Path 398" d="M375.523,180.869l-.007,0,.007.008Z" transform="translate(-17.883 -33.214)" fill="#070304"/>
    <path id="Path_399" data-name="Path 399" d="M341.752,144.655a18.922,18.922,0,0,0,1.746,2.592,15.394,15.394,0,0,0,4,3.545,8.177,8.177,0,0,1-1-1.153,9.293,9.293,0,0,1-1.03-1.918l-.023-.056c-.037-.083-.074-.169-.109-.253a12.188,12.188,0,0,1-.577-1.985,14.6,14.6,0,0,1-.3-2.78,22.652,22.652,0,0,1,.135-3.7l-.055.046c-.554.435-1.128.883-1.695,1.318A3.533,3.533,0,0,0,341.752,144.655Z" transform="translate(-0.822 -12.241)" fill="none"/>
    <path id="Path_400" data-name="Path 400" d="M349.288,139.331" transform="translate(-4.76 -12.431)" fill="#3f5673"/>
    <path id="Path_401" data-name="Path 401" d="M371.818,125.681a14.9,14.9,0,0,0-22.545-6.716q.217-.3.472-.592a8.69,8.69,0,0,1,1.856-1.578,12.555,12.555,0,0,1,1.591-.885,15.832,15.832,0,0,1,9.6.034l-.006-.006a19.133,19.133,0,0,1,7.523,4.6,9.9,9.9,0,0,0-2.9-3.086.251.251,0,0,0-.046-.03c-.049-.037-.1-.074-.151-.111a16.606,16.606,0,0,0-25.431,9.944l-.24.185-.093.071a4.194,4.194,0,0,0-1.171,5.278,20.24,20.24,0,0,0,1.535,2.266,16.52,16.52,0,0,0,8.522,10.813,17.93,17.93,0,0,0,7.6,1.461,24.8,24.8,0,0,1-4.584-1,15.839,15.839,0,0,1-2.6-1.036,12.5,12.5,0,0,1-1.726-1.008,15.84,15.84,0,0,1-6.111-7.952,15.238,15.238,0,0,0,4.264,3.16,13.252,13.252,0,0,0,3.071,1.042l.281.055a4.788,4.788,0,0,0,.518.092l.8.1c.175.021.354.027.527.037.092,0,.188.009.284.016l.08,0c.166.009.342.021.515.021.068,0,.142,0,.21-.009l.8-.018c.157-.006.314-.021.469-.037.108-.012.222-.021.333-.03a11.51,11.51,0,0,0,1.23-.154c.12-.018.244-.04.364-.055.213-.028.426-.077.629-.123.052-.015.1-.024.157-.037l.783-.179c.274-.074.552-.154.82-.234.117-.034.238-.068.361-.1s.241-.071.361-.1l.114-.028-.022-.123a17.169,17.169,0,0,0-1.2-3.983,12.4,12.4,0,0,0-2.328-3.481,19.91,19.91,0,0,0-3.234-2.658c-.151-.1-.3-.2-.447-.3-.413-.28-.842-.57-1.252-.863a7.681,7.681,0,0,1-1.468-1.323,7.4,7.4,0,0,1-1.079-1.649,7.1,7.1,0,0,1-.583-1.881c-.012-.1-.021-.188-.031-.283a12.5,12.5,0,1,1,17.072,17.972c-.1.077-.21.148-.314.219-.037.028-.074.055-.114.083-3.759,2.553-6.694,2.472-6.949,2.457v0a11.262,11.262,0,0,0,5.735-.962,13.2,13.2,0,1,0-15.475-20.784,5.689,5.689,0,0,1,.052-.669,5.529,5.529,0,0,1,.274-1.1A14.065,14.065,0,0,1,352.9,117.8a14.359,14.359,0,0,1,5.035-.909,14.143,14.143,0,0,1,9.333,3.512.018.018,0,0,0-.006-.012c.024.022.052.046.077.071a13.714,13.714,0,0,1,1.233,1.236,13.926,13.926,0,0,1,3.919,9.4A12.051,12.051,0,0,0,371.818,125.681Zm-29.143,9.327a15.281,15.281,0,0,1-1.381-1.93,4.657,4.657,0,0,1-.771-2.266,3.086,3.086,0,0,1,.438-1.492,5.333,5.333,0,0,1,1.2-1.351,17.987,17.987,0,0,1,1.563-1.212l.056-.046a22.568,22.568,0,0,0-.136,3.7,14.652,14.652,0,0,0,.3,2.781,12.168,12.168,0,0,0,.577,1.983c.034.086.071.169.111.256l.022.055a9.344,9.344,0,0,0,1.03,1.918,8.342,8.342,0,0,0,1,1.153A15.481,15.481,0,0,1,342.675,135.007Zm3.272-2.975a16.274,16.274,0,0,0,.563,3.585,8.385,8.385,0,0,0,1.665,3.241,5.3,5.3,0,0,0,.574.566l-.033-.017a8.187,8.187,0,0,1-1.557-1.181,7.866,7.866,0,0,1-1.206-1.523,10.571,10.571,0,0,1-1.335-3.647c-.065-.346-.111-.7-.151-1.07,0,0,0,0,0,0-.051-.557-.07-1.137-.069-1.715.533-.378,1.062-.762,1.592-1.148A22.379,22.379,0,0,0,345.947,132.033Zm2.435-12.633c-.086.151-.166.305-.237.459l-.043.1a5.952,5.952,0,0,0-.444,1.477,7.363,7.363,0,0,0-.018,2.152,7.535,7.535,0,0,0,.724,2.291,7.971,7.971,0,0,0,1.048,1.591,8.326,8.326,0,0,0,1.6,1.431c.391.281.8.543,1.193.8.179.117.357.231.536.348a20.393,20.393,0,0,1,3.241,2.473,11.985,11.985,0,0,1,2.371,3.271,14.987,14.987,0,0,1,1.221,3.77c-.077.025-.16.046-.24.071a22.429,22.429,0,0,1-4.751.851s0,0,0,0c-.28.022-.623.031-1,.028h-.006l-.256-.006c-.25-.007-.5-.018-.747-.046a13.49,13.49,0,0,1-1.6-.228c-.065-.013-.129-.031-.194-.046a5.168,5.168,0,0,1-2.307-1.586,7.966,7.966,0,0,1-1.5-3.108,15.777,15.777,0,0,1-.464-3.481,21.342,21.342,0,0,1,.182-3.512l.1-.737-.61.429c-.594.417-1.185.844-1.776,1.272a36.664,36.664,0,0,1,.463-4.586h0l-.8.623-.891.682-.487.376a15.983,15.983,0,0,1,5.233-7.825,15.657,15.657,0,0,1,2.8-1.816,8.55,8.55,0,0,0-1.486,1.314A6.912,6.912,0,0,0,348.382,119.4Z" transform="translate(0 0)" fill="#ad7b43"/>
    <path id="Path_402" data-name="Path 402" d="M348.813,145.463" transform="translate(-4.522 -15.499)" fill="none" stroke="#070304" stroke-width="0.617"/>
    <g id="Group_102" data-name="Group 102" transform="translate(444.705 129.97)">
      <path id="Path_404" data-name="Path 404" d="M551.03,150.868a2.414,2.414,0,0,1-.934-1,3.126,3.126,0,0,1-.321-1.432,3.2,3.2,0,0,1,.354-1.5,2.723,2.723,0,0,1,.975-1.069,2.55,2.55,0,0,1,1.386-.391,3.422,3.422,0,0,1,1.21.185,1.8,1.8,0,0,1,.741.481.923.923,0,0,1,.181.469,7.225,7.225,0,0,1,.033.781h-.247a2.12,2.12,0,0,0-.576-1.152,1.531,1.531,0,0,0-1.094-.395,1.62,1.62,0,0,0-1.325.593,3.186,3.186,0,0,0-.486,2,3.146,3.146,0,0,0,.445,1.736,1.509,1.509,0,0,0,1.366.691,1.94,1.94,0,0,0,1.057-.3,2.215,2.215,0,0,0,.778-.872l.288.222a2.592,2.592,0,0,1-.955,1.008,2.841,2.841,0,0,1-1.415.317A2.8,2.8,0,0,1,551.03,150.868Z" transform="translate(-549.775 -145.475)" fill="#ad7b43"/>
      <path id="Path_405" data-name="Path 405" d="M561.251,146.874a1.3,1.3,0,0,0-.115-.622.485.485,0,0,0-.461-.2h-.082V145.8h.987a.852.852,0,0,1,.453.1.543.543,0,0,1,.222.325,2.432,2.432,0,0,1,.066.646v1.358h2.221V145.8h1.07v4.361a1.294,1.294,0,0,0,.115.622.485.485,0,0,0,.461.2h.082v.247h-.987a.883.883,0,0,1-.452-.094.525.525,0,0,1-.222-.321,2.475,2.475,0,0,1-.066-.654V148.6h-2.221v2.633h-1.07Z" transform="translate(-555.188 -145.64)" fill="#ad7b43"/>
      <path id="Path_406" data-name="Path 406" d="M572.992,148.864v-1.991a1.3,1.3,0,0,0-.115-.622.485.485,0,0,0-.461-.2V145.8h.9a.851.851,0,0,1,.453.1.544.544,0,0,1,.222.325,2.456,2.456,0,0,1,.066.646l.008,2.238a2.4,2.4,0,0,0,.341,1.354,1.1,1.1,0,0,0,.967.481,1.444,1.444,0,0,0,1.222-.5,2.612,2.612,0,0,0,.382-1.584V145.8h.411v3.06a2.83,2.83,0,0,1-.51,1.831,2.043,2.043,0,0,1-1.67.621Q572.992,151.316,572.992,148.864Z" transform="translate(-561.103 -145.64)" fill="#ad7b43"/>
      <path id="Path_407" data-name="Path 407" d="M550.664,164.9l3.06-4.8h-1.785a.974.974,0,0,0-.7.234,1.022,1.022,0,0,0-.243.761h-.247v-.7q0-.659.7-.659h3.744l-3.225,5.06h3.184v.37h-4.484Z" transform="translate(-550.22 -152.611)" fill="#ad7b43"/>
      <path id="Path_408" data-name="Path 408" d="M560.922,160.807a1.292,1.292,0,0,0-.115-.621.485.485,0,0,0-.461-.2h-.083v-.247h.987a.852.852,0,0,1,.453.1.545.545,0,0,1,.222.325,2.438,2.438,0,0,1,.066.646v1.358h2.222v-2.427h1.07V164.1a1.293,1.293,0,0,0,.115.621.485.485,0,0,0,.461.2h.082v.247h-.987a.883.883,0,0,1-.452-.094.525.525,0,0,1-.222-.321,2.47,2.47,0,0,1-.066-.654v-1.563h-2.222v2.633h-1.07Z" transform="translate(-555.023 -152.611)" fill="#ad7b43"/>
      <path id="Path_409" data-name="Path 409" d="M572.663,162.8v-1.991a1.3,1.3,0,0,0-.115-.621.486.486,0,0,0-.461-.2v-.247h.9a.851.851,0,0,1,.453.1.544.544,0,0,1,.222.325,2.461,2.461,0,0,1,.066.646l.008,2.238a2.4,2.4,0,0,0,.341,1.354,1.1,1.1,0,0,0,.967.481,1.442,1.442,0,0,0,1.222-.5,2.608,2.608,0,0,0,.383-1.583v-3.061h.411V162.8a2.832,2.832,0,0,1-.51,1.831,2.044,2.044,0,0,1-1.67.621Q572.663,165.25,572.663,162.8Z" transform="translate(-560.938 -152.611)" fill="#ad7b43"/>
      <path id="Path_410" data-name="Path 410" d="M587,164.982a1.591,1.591,0,0,1-.683-.852l-.189-.461h-2.189l-.675,1.5h-.428l2.427-5.43h.37l1.843,4.394q.313.765.856.823v.205a1.5,1.5,0,0,1-.4.041A2.01,2.01,0,0,1,587,164.982Zm-2.888-1.683h1.86l-.905-2.148Z" transform="translate(-566.319 -152.611)" fill="#ad7b43"/>
      <path id="Path_411" data-name="Path 411" d="M594.6,161.095v4.073h-.411v-4.443a.808.808,0,0,0-.169-.543.716.716,0,0,0-.572-.2h-.041v-.247h.576a2.015,2.015,0,0,1,.752.119,1.167,1.167,0,0,1,.49.375l2.83,3.291v-3.785h.412v5.455h-.379Z" transform="translate(-571.608 -152.611)" fill="#ad7b43"/>
    </g>
  </g>
</svg>
