<svg xmlns="http://www.w3.org/2000/svg" width="18.454" height="18.454" viewBox="0 0 18.454 18.454">
  <g id="Group_101" data-name="Group 101" transform="translate(-377 -6886.367)">
    <g id="Group_33" data-name="Group 33" transform="translate(-859.054 6749.877)">
      <circle id="Ellipse_39" data-name="Ellipse 39" cx="8.727" cy="8.727" r="8.727" transform="translate(1236.554 136.989)" fill="none" stroke="#a47d4c" stroke-linecap="round" stroke-linejoin="round" stroke-width="1"/>
      <circle id="Ellipse_40" data-name="Ellipse 40" cx="1.402" cy="1.402" r="1.402" transform="translate(1243.879 142.959)" fill="none" stroke="#a47d4c" stroke-linecap="round" stroke-linejoin="round" stroke-width="0.75"/>
      <path id="Path_204" data-name="Path 204" d="M1245.652,140.478c-.122-.012-.246-.017-.371-.019v0l-.032,0-.032,0v0c-.125,0-.249.007-.371.019a3.967,3.967,0,0,0-3.4,4.421,5.966,5.966,0,0,0,1.325,2.8l1.97,2.854.479.693v.092l.032-.046.032.046v-.092l.478-.693,1.971-2.854a5.965,5.965,0,0,0,1.325-2.8A3.968,3.968,0,0,0,1245.652,140.478Z" fill="none" stroke="#a47d4c" stroke-linecap="round" stroke-linejoin="round" stroke-width="1"/>
    </g>
  </g>
</svg>
